<svg xmlns="http://www.w3.org/2000/svg" xml:space="preserve" viewBox="0 0 2079 1024"><path fill="#F5C518" d="M2080 104c0 273.7 0 547.399-.376 821.659-.79 1.237-1.466 1.873-1.577 2.596-3.195 20.769-12.325 38.946-25.727 54.697-15.892 18.677-35.602 32.052-59.751 38.105-5.507 1.38-11.045 2.632-16.569 3.943-623.366 0-1246.732 0-1870.698-.395-2.424-.471-4.3-.301-6.068-.66-20.696-4.21-39.751-12.312-55.752-26.168-18.942-16.401-32.842-36.305-38.653-61.196C3.91 932.638 2.294 928.856 1 925c0-274.366 0-548.732.373-823.67.79-1.78 1.382-2.96 1.6-4.206C6.548 76.69 15.322 58.565 28.712 42.979c15.971-18.591 35.612-31.983 59.73-38.044C93.945 3.552 99.48 2.308 105 1c623.366 0 1246.732 0 1870.698.395 12.21 1.039 22.997 4.817 33.536 9.33 15.351 6.575 28.404 16.381 39.692 28.662 10.632 11.566 18.994 24.523 24.005 39.42 2.778 8.256 4.74 16.787 7.069 25.193M23 180.5c0 243.164-.005 486.328.014 729.492 0 12.662 3.31 24.617 8.535 36.034 7.245 15.832 17.91 29.003 32.126 39.062 15.49 10.959 32.715 17.826 51.824 17.829 616.498.1 1232.995.085 1849.493.07 12.66-.001 24.593-3.361 36.039-8.523 15.908-7.174 29.013-17.942 39.036-32.154 10.913-15.473 17.853-32.665 17.86-51.808.108-264.832.077-529.665.06-794.497-.001-12.662-3.313-24.615-8.537-36.033-7.245-15.833-17.91-29.002-32.127-39.061-15.489-10.96-32.715-17.824-51.824-17.828-615.664-.1-1231.329-.104-1846.993.11-9.575.004-19.45 1.91-28.66 4.678-17.392 5.225-31.878 15.303-43.666 29.352-14.327 17.074-22.636 36.47-23.088 58.78C22.664 137.16 23 158.332 23 180.5"/><path fill="none" d="M2080 103.531c-2.33-7.937-4.291-16.468-7.069-24.723-5.011-14.898-13.373-27.855-24.005-39.42-11.288-12.282-24.34-22.088-39.692-28.662-10.539-4.514-21.326-8.292-33.086-9.331C2010.593 1 2045.187 1 2080 1zM104.531 1C99.48 2.308 93.944 3.552 88.443 4.935c-24.119 6.06-43.76 19.453-59.731 38.044C15.322 58.565 6.548 76.69 2.973 97.124c-.218 1.245-.81 2.425-1.6 3.756C1 67.738 1 34.477 1 1zM1 925.469c1.294 3.387 2.909 7.169 3.83 11.112 5.81 24.891 19.71 44.795 38.652 61.196 16 13.856 35.056 21.959 55.752 26.167 1.768.36 3.644.19 5.618.661C70.408 1025 35.816 1025 1 1025zM1976.469 1025c5.055-1.311 10.593-2.563 16.1-3.943 24.149-6.053 43.86-19.428 59.75-38.105 13.403-15.751 22.533-33.928 25.728-54.697.111-.723.787-1.36 1.577-2.145.376 32.819.376 65.747.376 98.89z"/><path fill="none" d="M23 180c0-21.667-.336-42.84.092-63.998.452-22.308 8.76-41.705 23.088-58.78 11.788-14.048 26.274-24.126 43.667-29.351 9.21-2.767 19.084-4.674 28.66-4.677 615.663-.215 1231.328-.212 1846.992-.11 19.109.003 36.335 6.867 51.824 17.827 14.216 10.059 24.882 23.228 32.127 39.061 5.224 11.418 8.536 23.371 8.537 36.033.017 264.832.048 529.665-.06 794.497-.007 19.143-6.947 36.335-17.86 51.808-10.023 14.212-23.128 24.98-39.036 32.154-11.446 5.162-23.379 8.522-36.04 8.522-616.497.016-1232.994.032-1849.492-.07-19.11-.002-36.334-6.87-51.824-17.828-14.217-10.059-24.881-23.23-32.126-39.062-5.225-11.417-8.534-23.372-8.535-36.034C22.995 666.828 23 423.664 23 180m850.5 636h110.233V217.235H782.121L747.42 488.619l-1.14-.16-38.954-271.204H506.243v598.502h136.42V439.484l1.704-.103 54.12 376.618c31.34 0 62.798.038 94.256-.16 1.093-.006 2.838-2.23 3.128-3.655.778-3.822.813-7.79 1.354-11.669 1.19-8.52 2.616-17.007 3.745-25.534 1.155-8.724 1.962-17.495 3.119-26.22 1.537-11.592 3.331-23.15 4.889-34.74 1.128-8.397 1.962-16.832 3.09-25.228 1.212-9.009 2.683-17.983 3.912-26.99 1.145-8.388 2.036-16.812 3.194-25.199 1.177-8.519 2.66-16.996 3.793-25.52 1.16-8.726 1.939-17.501 3.096-26.226 1.538-11.592 3.352-23.147 4.914-34.736 1.131-8.395 1.953-16.833 3.081-25.229 1.211-9.008 2.697-17.98 3.92-26.987 1.139-8.392 2.012-16.82 3.141-25.214 1.56-11.591 3.222-23.169 4.896-34.745.516-3.561 1.214-7.096 1.83-10.643l1.354.234V816zm492.542-42.566c.766-1.408 1.404-2.905 2.318-4.21 6.897-9.836 10.54-21.166 12.37-32.65 2.671-16.755 4.024-33.76 5.14-50.711.958-14.543 1.118-29.161 1.077-43.744-.22-77.745-.572-155.49-.984-233.234-.077-14.586-.473-29.175-1.015-43.751-.403-10.846-1.516-21.666-1.895-32.512-.642-18.399-4.912-35.754-14.081-51.78-9.587-16.758-22.512-30.321-39.488-39.657-23.063-12.684-48.359-17.577-74.178-20.108-14.546-1.426-29.157-2.344-43.76-3.002-14.903-.67-29.832-.983-44.75-1.03-42.329-.13-84.658-.048-126.987-.032-1.254 0-2.509.192-3.47.27V816c1.164 0 1.99.003 2.815 0 64.912-.333 129.825-.629 194.737-1.037 10.92-.07 21.834-.762 32.755-.931 15.389-.238 30.522-2.296 45.421-6.05 21.554-5.432 39.893-15.994 53.975-34.548M1587 275.5v-58.209h-148.711v598.597h139.148l9.422-36.446c6.776 6.408 13.166 12.774 19.907 18.743 8.276 7.328 17.564 13.422 28.11 16.652 10.267 3.144 20.892 5.404 31.515 7.04 17.498 2.693 34.871 1.616 51.955-3.576 17.927-5.448 32.513-15.848 45.192-29.313 8.594-9.127 14.32-19.815 17.444-31.892 5.743-22.204 6.7-45.046 6.786-67.696.282-74.581-.368-149.167-.85-223.75-.062-9.498-.307-19.172-2.113-28.445-3.937-20.219-13.963-37.028-31-49.23-18.744-13.422-40.325-17.983-62.66-18.722-12.365-.41-24.871 1.3-37.213 2.849-19.04 2.39-35.68 10.603-50.318 22.851-5.595 4.682-10.845 9.776-16.614 15.01zm-1132 140V217.289H300.286v598.422H455z"/><path fill="#F5C518" d="M873 816h-23.801V427.538l-1.355-.234c-.615 3.547-1.313 7.082-1.829 10.643-1.674 11.576-3.337 23.154-4.896 34.745-1.129 8.394-2.002 16.822-3.142 25.214-1.222 9.007-2.708 17.979-3.919 26.987-1.128 8.396-1.95 16.834-3.081 25.23-1.562 11.588-3.376 23.143-4.914 34.735-1.157 8.725-1.936 17.5-3.096 26.225-1.132 8.525-2.616 17.002-3.793 25.521-1.158 8.387-2.05 16.81-3.194 25.2-1.23 9.006-2.7 17.98-3.911 26.989-1.129 8.396-1.963 16.831-3.091 25.227-1.558 11.59-3.352 23.149-4.89 34.742-1.156 8.724-1.963 17.495-3.118 26.22-1.129 8.526-2.556 17.013-3.745 25.533-.541 3.88-.576 7.847-1.354 11.67-.29 1.424-2.035 3.648-3.128 3.654-31.458.198-62.917.16-94.256.16-18.078-125.803-36.1-251.21-54.12-376.618l-1.705.103v376.273h-136.42V217.255h201.084L746.28 488.46l1.14.16 34.7-271.385h201.613V816zM1365.79 773.705c-13.83 18.283-32.169 28.845-53.723 34.276-14.899 3.755-30.032 5.813-45.421 6.051-10.92.17-21.835.862-32.755.93-64.912.41-129.825.705-194.737 1.037-.826.004-1.65 0-2.815 0V217.285c.961-.079 2.216-.27 3.47-.271 42.329-.016 84.658-.098 126.987.033 14.918.046 29.847.359 44.75 1.03 14.603.657 29.214 1.575 43.76 3.001 25.82 2.53 51.115 7.424 74.178 20.108 16.976 9.336 29.9 22.9 39.488 39.656 9.169 16.027 13.439 33.382 14.081 51.781.38 10.846 1.492 21.666 1.895 32.512.542 14.576.938 29.165 1.015 43.751.412 77.744.764 155.489.984 233.234.04 14.583-.119 29.2-1.077 43.744-1.116 16.951-2.469 33.956-5.14 50.711-1.83 11.484-5.473 22.814-12.37 32.65-.914 1.305-1.552 2.802-2.57 4.481m-130.788-433.06c-1.804-8.074-7.066-13.514-14.408-16.25-9.389-3.5-19.348-4.03-29.385-3.15v390.133c6.434-.472 12.73-.345 18.784-1.496 14.154-2.692 20.738-7.141 23.577-19.494 2.611-11.36 4.208-23.22 4.246-34.865.323-97.954.242-195.91.057-293.865-.012-6.725-1.837-13.447-2.87-21.013M1587 276v133.963c5.77-5.234 11.02-10.328 16.614-15.01 14.639-12.248 31.279-20.461 50.318-22.851 12.342-1.55 24.848-3.259 37.213-2.85 22.335.74 43.916 5.3 62.66 18.724 17.037 12.2 27.063 29.01 31 49.229 1.806 9.273 2.05 18.947 2.112 28.446.483 74.582 1.133 149.168.851 223.749-.085 22.65-1.043 45.492-6.786 67.696-3.124 12.077-8.85 22.765-17.444 31.892-12.679 13.465-27.265 23.865-45.192 29.313-17.084 5.192-34.457 6.27-51.955 3.576-10.623-1.636-21.248-3.896-31.515-7.04-10.546-3.23-19.834-9.324-28.11-16.652-6.741-5.969-13.131-12.335-19.907-18.743l-9.422 36.446H1438.29V217.291H1587zm0 273.5c0 8-.11 16 .018 23.998.733 46-1.946 92.053 2.069 137.993.54 6.177 1.043 12.667 5.59 17.672 6.922 7.62 15.318 7.852 24.594 5.25 7.193-2.017 13.954-4.696 15.55-12.65 1.726-8.59 3.01-17.435 3.045-26.174.25-62.996.219-125.994.044-188.99-.026-9.666-.877-19.374-2.05-28.977-.75-6.146-2.172-12.232-8.514-15.912-7.743-4.494-16.052-5.728-24.495-4.429-5.955.917-11.036 4.625-11.861 11.3-1.58 12.776-3.232 25.585-3.842 38.428-.655 13.802-.148 27.658-.148 42.491M455 416v399.71H300.286V217.29H455z"/><path fill="none" d="M1235.028 341.067c1.008 7.144 2.833 13.866 2.845 20.59.185 97.956.266 195.912-.057 293.866-.038 11.646-1.635 23.504-4.246 34.865-2.84 12.353-9.423 16.802-23.577 19.494-6.053 1.151-12.35 1.024-18.784 1.496V321.245c10.037-.88 19.996-.35 29.385 3.15 7.342 2.736 12.604 8.176 14.434 16.672M1587 549c0-14.333-.507-28.19.148-41.99.61-12.844 2.263-25.653 3.842-38.43.825-6.674 5.906-10.382 11.861-11.299 8.443-1.3 16.752-.065 24.495 4.429 6.342 3.68 7.764 9.766 8.515 15.912 1.172 9.603 2.023 19.311 2.05 28.977.174 62.996.205 125.994-.045 188.99-.035 8.74-1.32 17.584-3.044 26.175-1.597 7.953-8.358 10.632-15.55 12.65-9.277 2.601-17.673 2.369-24.595-5.25-4.547-5.006-5.05-11.496-5.59-17.673-4.015-45.94-1.336-91.994-2.069-137.993-.127-7.997-.018-15.998-.018-24.498"/></svg>