<svg xmlns="http://www.w3.org/2000/svg" viewBox="0 0 2079 1024"><defs><linearGradient id="a" x1="0%" x2="100%" y1="0%" y2="100%"><stop offset=".6" stop-color="#FCD24C"/><stop offset="1" stop-color="#D35722"/></linearGradient></defs><path fill="url(#a)" d="M2080 104c0 273.7 0 547.399-.376 821.659-.79 1.237-1.466 1.873-1.577 2.596-3.195 20.769-12.325 38.946-25.727 54.697-15.892 18.677-35.602 32.052-59.751 38.105-5.507 1.38-11.045 2.632-16.569 3.943-623.366 0-1246.732 0-1870.698-.395-2.424-.471-4.3-.301-6.068-.66-20.696-4.21-39.751-12.312-55.752-26.168-18.942-16.401-32.842-36.305-38.653-61.196C3.91 932.638 2.294 928.856 1 925c0-274.366 0-548.732.373-823.67.79-1.78 1.382-2.96 1.6-4.206C6.548 76.69 15.322 58.565 28.712 42.979c15.971-18.591 35.612-31.983 59.73-38.044C93.945 3.552 99.48 2.308 105 1c623.366 0 1246.732 0 1870.698.395 12.21 1.039 22.997 4.817 33.536 9.33 15.351 6.575 28.404 16.381 39.692 28.662 10.632 11.566 18.994 24.523 24.005 39.42 2.778 8.256 4.74 16.787 7.069 25.193M23 180.5c0 243.164-.005 486.328.014 729.492 0 12.662 3.31 24.617 8.535 36.034 7.245 15.832 17.91 29.003 32.126 39.062 15.49 10.959 32.715 17.826 51.824 17.829 616.498.1 1232.995.085 1849.493.07 12.66-.001 24.593-3.361 36.039-8.523 15.908-7.174 29.013-17.942 39.036-32.154 10.913-15.473 17.853-32.665 17.86-51.808.108-264.832.077-529.665.06-794.497-.001-12.662-3.313-24.615-8.537-36.033-7.245-15.833-17.91-29.002-32.127-39.061-15.489-10.96-32.715-17.824-51.824-17.828-615.664-.1-1231.329-.104-1846.993.11-9.575.004-19.45 1.91-28.66 4.678-17.392 5.225-31.878 15.303-43.666 29.352-14.327 17.074-22.636 36.47-23.088 58.78C22.664 137.16 23 158.332 23 180.5"/><path fill="#493513" d="M767.203 183.905c10.25 6.49 18.836 14.026 24.522 24.844v3.45l5.93-1.724c15.313-3.708 28.248-2.069 42.373 5.175 8.982 6.559 15.564 15.263 18.976 25.876q.59 5.115 1.078 10.244c1.233 9.145 3.91 12.88 10.889 18.867l4.576 3.437c6.135 5.428 8.962 10.804 9.9 18.95-.046 1.578-.09 3.157-.135 4.783l-.082 4.812c-.315 4.012-1.048 7.488-2.075 11.361 1.156-.017 2.313-.036 3.506-.055 5.265-.07 10.528-.116 15.793-.16 1.82-.03 3.64-.057 5.517-.088 1.76-.01 3.524-.023 5.339-.033 1.618-.02 3.234-.036 4.9-.055 5.004.424 8.645 1.908 13.248 3.841 4.966-.346 9.341-1.385 14.056-2.97 10.652-3.552 20.14-4.758 31.334-4.577l4.788.054c29.895.68 52.304 11.166 74.023 31.645a113 113 0 0 1 8.091 10.485c2.846 4.157 5.986 8.032 9.16 11.94 1.26-2 1.26-2 2.536-4.043 17.596-27.339 41.075-46.212 73.49-53.422 30.982-4.6 63.138-1.933 89.583 16.064 9.66 7.155 17.907 15.563 24.152 25.876v3.45c4.243-4.187 8.418-8.384 12.403-12.817 15.681-17.027 36.072-28.14 59.602-29.104 29.775-.35 53.668 4.088 76.25 25.21 16.37 17.406 19.717 36.68 19.079 59.839h6.9l-1.725-5.176-1.725 3.45c-1.725-1.725-1.725-1.725-1.829-7.87.035-1.957.07-3.914.104-5.93l1.725 5.175h3.45c.035-1.41.052-2.817.086-4.27.121-6.412.294-12.822.466-19.234.035-2.217.07-4.434.104-6.718.069-2.146.12-4.292.19-6.504l.137-5.967c1.415-10.624 6.435-17.79 14.543-24.586 7.228-2.927 13.352-3.891 21.132-3.909l6.107-.012 6.297.04 6.28-.04c10.47.023 19.303.537 29.188 3.921 8.021-.491 13.628-3.284 20.7-6.9 9.04-2.762 20.823-3.881 29.638-.12 3.467 1.954 3.467 1.954 6.452 3.955 5.4 2.013 10.023.45 15.664-.385 7.366-.35 14.715-.393 22.08-.414 3.451-.017 6.901-.07 10.351-.124 12.007-.048 21.72.88 33.036 4.823 5.538 1.39 8.712-.407 13.577-3.098 18.769-8.306 44.18-7.837 63.552-1.247 23.082 10.193 37.09 25.25 47.164 48.363 6.71 20.684 5.469 44.43 5.538 65.91v3.635q.051 9.487.051 18.973.026 9.73.104 19.459.052 7.558.052 15.117c0 2.393.017 4.784.034 7.175.259 28.4.259 28.4-8.039 37.943-14.818 13.475-37.624 11.215-56.393 11.198-11.834-.571-19.89-2.748-28.74-10.815-5.227-6.76-6.193-13.425-6.245-21.797-.035-2.01-.052-4.02-.07-6.09-.016-2.154-.034-4.308-.034-6.529-.034-3.402-.086-6.802-.12-10.204-.07-7.167-.121-14.333-.173-21.501a6068 6068 0 0 0-.172-17.72q-.078-6.638-.104-13.277c-.017-2.01-.052-4.02-.069-6.09-.017-1.762-.034-3.525-.034-5.34-.483-5.074-1.794-8.862-3.916-13.47h-8.626c-2.898 6.338-3.881 11.303-3.916 18.254l-.052 5.723c0 2.026 0 4.053-.017 6.138-.034 4.311-.086 8.624-.12 12.935-.052 6.78-.087 13.56-.121 20.339-.052 6.555-.121 13.11-.19 19.666v6.105c-.138 12.272-.449 23.938-9.212 33.424-1.742 1.176-1.742 1.176-3.502 2.379l-3.502 2.472c-9.816 5.444-21.288 4.118-32.19 4.181-2.364.021-4.71.056-7.073.107-26.653.578-26.653.578-38.435-7.516-7.832-9.205-8.798-17.554-8.97-29.299-.035-2.036-.07-4.073-.104-6.172-.035-2.183-.07-4.363-.086-6.61a963 963 0 0 0-.121-6.81l-.259-17.858c-.086-6.083-.172-12.165-.276-18.248-.19-11.92-.362-23.84-.535-35.76-2.484.23-4.95.473-7.435.722q-2.07.2-4.192.405c-5.192.797-8.47 2.463-12.524 5.774-3.191 5.196-3.881 9.14-3.916 15.196l-.052 4.975c0 1.765 0 3.53-.017 5.348-.034 3.76-.086 7.518-.12 11.277-.053 5.909-.087 11.819-.122 17.727-.051 5.714-.12 11.429-.19 17.142v5.295c-.172 12.973-1.638 24.52-9.815 34.955-13.214 10.223-25.583 9.635-41.834 9.488-2.225.021-4.45.04-6.745.06-14.3-.042-23.91-.596-35.192-9.87-7.745-9.523-7.694-18.773-7.228-30.514-17.182 2.036-17.182 2.036-31.103 10.896-2.019 4.361-3.623 8.691-5.124 13.256-7.71 11.97-19.235 17.48-32.777 20.7-19.476 1.812-35.105-.04-50.562-12.397-6.745-6.328-11.386-13.598-14.991-22.104v-3.45l-5.175 1.725c-13.611.695-26.619.812-39.678-3.45-.948 1.124-1.914 2.25-2.898 3.41-20.58 23.561-42.972 34.492-74.075 37.56-31.88 1.893-60.568-7.447-85.496-27.385-9.591-8.803-18.027-20.933-23.84-32.561-1.277 2-1.277 2-2.588 4.043-17.113 26.232-36.831 46.443-68.193 54.172-18.064 3.395-35.342 1.078-53.421-1.287.017.973.036 1.946.053 2.948.073 4.48.117 8.96.162 13.44.03 1.53.057 3.06.088 4.637.164 22.333.164 22.333-6.867 31.205l-3.571 2.866c-1.17.974-2.34 1.95-3.545 2.957-3.56 2.318-6.318 3.315-10.472 4.05v3.45c1.862-.04 1.862-.04 3.761-.083 37.12-.703 68.981-.324 97.463 26.83 9.885 10.63 17.889 22.574 24.703 35.357.638-1.255 1.26-2.509 1.915-3.8 14.888-27.654 36.451-45.391 66.313-54.886 25.427-7.223 53.684-5.55 78.405 3.483 1.277.438 2.553.876 3.864 1.328 12.352 5.186 22.444 15.772 32.363 24.548.293-1.145.587-2.29.897-3.47 4.4-16.015 4.4-16.015 11.179-22.406 6.9-3.918 12.903-3.55 20.7-3.45.07-2.592.07-2.592.139-5.236.552-14.377 1.19-24.874 11.403-35.843 12.696-6.522 27.98-6.55 41.937-7.224l6.33-.343c22.582-.703 22.582-.703 31.622 7.243 8.453 9.645 7.849 22.181 8.16 34.333.241 2.646.241 2.646.465 5.344 4.762 2.378 8.936 2.053 14.232 2.265 9.195.668 15.164 1.436 21.995 8.086 5.624 8.418 6.987 17.786 8.626 27.601h3.45c2.346-2.556 4.589-5.196 6.797-7.87 15.957-17.99 38.245-28.998 62.207-31.807 32.07-1.784 63.38-1.035 88.911 21.297 5.693 5.321 11.023 10.947 16.32 16.655 1.725 1.734 3.432 3.464 5.175 5.176a544 544 0 0 1 1.414-9.811c.259-1.822.518-3.643.777-5.52 2.535-10.775 8.177-16.292 16.785-22.621 9.505-3.294 20.287-2.115 30.189-2.157l6.365-.107c10.524-.045 19.77.533 29.93 3.402 7.488 2.113 7.488 2.113 15.13.93 1.466-.86 2.915-1.72 4.433-2.607 12.318-6.022 25.463-7.544 38.746-3.37 7.556 3.888 11.593 9.263 14.18 17.212 1.725 8.926 1.225 18.223 1.277 27.295q.026 3.805.103 7.608c.57 28.507.57 28.507-7.521 38.048-8.712 7.632-18.13 9.035-29.154 11.079-7.729 1.592-12.473 2.991-17.424 9.622-1.707 5.158-1.932 8.553-1.932 13.937-.017 1.786-.017 3.571-.017 5.41-.017 2.897-.017 2.897-.017 5.85l-.104 12.26c-.051 6.444-.086 12.885-.086 19.328 0 6.22-.069 12.436-.12 18.655 0 1.912.017 3.825.034 5.795-.19 11.73-1.777 20.287-9.833 29.171-12.162 9.547-25.514 8.94-40.212 8.95-1.743.02-3.468.042-5.262.064-14.594.028-27.429-.968-39.056-10.739-5.882-7.568-7.849-14.703-8.625-24.151-.897.982-1.794 1.961-2.726 2.972-19.373 20.318-44.128 33.38-72.557 35.285-43.61.947-43.61.947-62.725-7.205-1.621-.692-3.243-1.384-4.934-2.096-16.957-8.267-31.69-21.588-41.643-37.582-.19 1.624-.38 3.247-.57 4.92-.276 2.148-.552 4.296-.828 6.51-.258 2.121-.517 4.243-.793 6.429-1.656 8.275-4.296 14.377-10.092 20.525-13.3 8.094-29.378 7.049-44.421 7.009l-6.297.083c-23.013.013-41.281-5.195-59.05-20.137-16.647-19.892-20.114-37.249-20.477-62.966-.086-4.434-.19-8.866-.293-13.296-.034-2.912-.034-2.912-.086-5.882-.31-9.673-.31-9.673-5.451-17.374-.207 2.99-.207 2.99-.432 6.038-1.38 10.689-5.21 19.544-13.576 26.524-1.639 1.209-3.278 2.42-4.968 3.665l-3.45 3.45c.724.937 1.466 1.872 2.207 2.838a710 710 0 0 1 2.864 3.74 766 766 0 0 1 2.847 3.699c4.692 6.788 4.83 12.724 4.157 20.775-4.968 16.789-20.425 27.359-35.02 35.58-31.172 15.878-65.518 20.329-99.382 10.977-28.24-9.267-47.302-26.094-62.897-51.032-2.415-4.309-2.415-4.309-6.262-5.875-.12.96-.259 1.921-.38 2.912-3.088 17.885-14.697 29.618-28.947 40.215-29.863 18.624-64.404 21.909-98.325 15.526-28.098-6.738-50.191-22.506-65.77-46.793a484 484 0 0 1-4.959-8.41l-.196 5.613q-.17 3.716-.344 7.434l-.117 3.681c-.552 10.901-3.074 19.076-10.125 27.693-12.764 10.442-25.027 9.852-40.97 9.704l-6.511.06c-14.196-.045-24.155-.319-34.57-10.733-5.737-8.362-7.64-15.821-7.745-25.887l-.088-5.862c-.02-3.098-.02-3.098-.043-6.259l-.09-6.495a4675 4675 0 0 1-.193-17.037q-.122-11.995-.281-23.989-.081-6.375-.138-12.752l-.07-5.863c-.016-1.693-.034-3.385-.05-5.129-.265-5.193-1.027-10.149-1.974-15.258h-10.35c-1.27 16.146-1.892 32.23-2.09 48.423-.024 1.827-.05 3.654-.074 5.537-.1 7.596-.195 15.193-.256 22.79-.046 5.618-.125 11.233-.21 16.85-.005 1.71-.01 3.417-.017 5.178-.162 9.173-.775 15.816-5.98 23.703-13.276 12.699-24.346 12.662-41.942 12.616l-6.263.083c-24.618.013-24.618.013-33.759-8.12-7.504-8.422-9.881-16.163-9.988-27.238l-.088-6.35c-.02-3.37-.02-3.37-.043-6.807q-.043-3.507-.09-7.016a5037 5037 0 0 1-.193-18.416c-.09-9.843-.202-19.686-.324-29.53-.04-3.438-.068-6.876-.095-10.314l-.071-6.3c-.016-1.836-.033-3.671-.048-5.562.038-4.344.038-4.344-1.976-7.802h-8.625c-2.284 4.566-1.965 8.037-1.998 13.152l-.053 6.16-.038 6.692-.11 10.378q-.14 12.814-.22 25.63-.043 7.18-.127 14.36-.081 6.761-.1 13.522c-.173 12.514-.437 22.521-8.764 32.46l-2.93 2.392-2.892 2.459c-11.44 7.176-23.898 6.201-36.893 6.167l-6.24.083c-24.534.013-24.534.013-33.675-8.12-9.147-10.266-9.981-19.047-9.466-32.18l-3.093 1.827-4.131 2.378c-1.34.78-2.681 1.56-4.063 2.366-13.112 6.357-28.23 3.864-42.19 2.054l-1.78 2.972c-10.327 16.453-22.867 27.095-41.348 33.255-21.8 1.42-38.13.49-55.634-13.8-12.978-12.426-19.675-26.967-20.27-44.853l-4.853.431c-14.98-.12-27.763-7.02-38.37-17.19-13.32-15.647-14.6-32.465-13.705-52.245 1.735-16.07 9.132-29.55 20.91-40.54 9.759-7.79 20.427-10.802 32.568-12.938l1.085-4.36c5.57-20.352 15.213-34.561 33.417-45.667 23.633-10.815 51.46-12.68 76.024-3.889 21.057 9.012 34.249 21.695 43.162 42.905 2.976 7.792 3.502 14.294 3.402 22.549l-.022 3.669c-.02 2.98-.052 5.964-.085 8.945 1.565.498 3.131.997 4.744 1.509 4.453 1.54 8.346 3.238 12.507 5.39.024-1.652.05-3.303.076-5.005.1-6.186.235-12.373.376-18.559q.085-3.998.145-8c.493-32.508.493-32.508 8.562-41.75 12.077-11.05 26.17-10.07 41.516-10.028 3.088-.043 3.088-.043 6.24-.084 11.734-.007 20.337 1.105 31.065 5.798 8.129-.29 14.867-2.53 22.271-5.66 18.997-6.533 41.816-3.875 60.534 2.21 4.766 2.611 9.124 5.365 13.483 8.604 3.762 2.238 3.762 2.238 7.992.58l4.4-2.284 4.448-2.103c1.522-.728 3.042-1.458 4.61-2.21 23.946-10.795 50.504-10.756 75.473-2.587 5.86 2.79 10.593 6.15 15.525 10.35l3.97 3.276c11.62 10.508 17.3 22.318 23.632 36.401a514 514 0 0 0 3.45 6.9c.526-1.005 1.054-2.01 1.598-3.046 13.736-24.612 35.376-45.813 62.23-55.607 4.819-.222 4.819-.222 8.626 0l-1.725-3.45-8.626 1.725v-3.45l-5.87.12c-36.487.54-36.487.54-49.333-10.47-4.362-7.315-5.83-12.76-5.894-21.235l-.086-6.419c-.01-3.396-.01-3.396-.018-6.862q-.036-3.551-.08-7.099a3192 3192 0 0 1-.153-18.626c-.06-9.947-.165-19.893-.272-29.842-.033-3.466-.052-6.933-.07-10.4l-.056-6.387-.033-5.617c-.207-4.197-.754-7.715-1.963-11.72l-1.344 5.901q-2.495 10.95-5.006 21.895-1.08 4.718-2.153 9.437c-11.87 52.166-11.87 52.166-29.665 64.979-53.384 26.46-140.855 21.204-196.445 4.744-13.45-5.32-21.58-12.464-27.601-25.877a178 178 0 0 1-2.697-11.554l-.681-3.354c-.737-3.64-1.453-7.283-2.168-10.927q-.774-3.858-1.553-7.714a6720 6720 0 0 1-4.05-20.329c-1.344-6.773-2.706-13.544-4.065-20.315-8.229-41.05-8.229-41.05-11.115-56.226l-.954-4.947q-.833-4.35-1.633-8.703c-1.277-7.192-1.277-7.192-5.586-12.914l-1.84 4.737c-5.4 13.326-11.093 23.985-20.586 34.94l-3.128 4.528c-19.309 20.964-48.615 29.618-76.227 31.699-5.79.18-11.568.165-17.36.108l-4.524-.024c-3.632-.02-7.261-.051-10.893-.084.018 1.078.037 2.154.054 3.265.072 4.95.117 9.899.162 14.848.03 1.694.057 3.39.088 5.136.098 14.91-.816 26.889-11.389 38.154-14.42 12.881-43.685 8.296-61.596 7.421-10.851-.77-20.688-2.12-28.37-10.387-9.003-11.861-8.364-26.797-8.273-40.993-.005-2.179-.012-4.358-.019-6.604-.015-5.934 0-11.868.024-17.803.02-6.238.012-12.476.009-18.713q-.001-15.711.05-31.423c.036-12.07.041-24.143.031-36.215-.01-11.658 0-23.316.019-34.975q.012-7.41.007-14.82c-.005-6.914.02-13.83.048-20.744l-.012-6.141c.197-30.633.197-30.633 10.796-43.102 13.283-9.667 28.559-8.477 44.205-8.403q3.946-.005 7.89-.015 8.252-.01 16.503.027c6.983.03 13.965.012 20.948-.019 5.432-.019 10.863-.012 16.295.002q3.855.004 7.711-.014c33.355-.122 62.157 6.875 88.325 28.307 1.116.9 2.232 1.798 3.383 2.722 15.333 13.737 23.951 35.394 31.119 54.206l1.839-2.775c4.34-6.212 7.908-11.225 14.765-14.691 6.702-3.723 8.679-7.194 12.723-13.585 9.741-9.521 19.67-13.073 32.776-15.526.045-1.17.088-2.34.135-3.545 1.297-21.295 8.135-35.458 24.017-49.933 10.914-8.43 24.643-8.93 37.952-10.35l1.023-3.228c6.193-17.536 16.505-28.526 32.46-37.845 17.445-8.024 41.691-9.483 59.3-1.023M412.204 351.932v25.877c11.935.441 20.572.747 31.052-5.176 2.174-4.347 1.584-6.648.97-11.428-.176-1.41-.35-2.82-.532-4.272l-.438-3.276c-11.2-5.485-19.307-7.597-31.052-1.725m508.903 255.314-1.725 3.45h3.45zm338.113 93.155 1.726 13.801 5.175-5.175-3.45-3.45zm105.231 1.725c-.483 7.032-.397 14.086-.431 21.133-.035 1.977-.07 3.954-.104 5.991 0 1.91-.017 3.82-.017 5.788l-.052 5.304c.708 5.716 2.33 8.964 5.78 13.537 4.33 1.04 4.33 1.04 8.953.54 1.552-.08 3.105-.157 4.71-.236l3.587-.304c3.623-5.96 3.968-10.854 4.175-17.763.086-3.12.086-3.12.19-6.3l.172-6.557c.07-2.191.121-4.38.19-6.638.173-5.407.328-10.813.449-16.22-4.279-.046-8.557-.08-12.818-.107l-3.709-.045c-6.038-.595-6.038-.595-11.075 1.877m-322.592 63.829 1.725 3.45zm1.725 3.45 1.725 5.175zm1.725 5.175 1.725 6.9 1.725-3.45z"/><path fill="#FCD24C" d="m977.28 329.075 4.977-.107c22.512-.123 41.816 8.158 58.48 23.3 23.582 25.763 26.377 56.805 25.514 89.928-1.242 24.948-14.128 47.385-31.293 64.995-16.509 14.121-37.693 21.387-59.269 21.065-15.626-1.25-30.379-8.294-42.135-18.585-2.096-2.48-2.096-2.48-2.096-5.93h-3.45l1.725 3.45c.188 2.368.274 4.744.305 7.12l.067 4.448c.012 1.589.024 3.176.038 4.813l.042 4.937q.036 5.175.057 10.351c.029 5.286.105 10.57.18 15.855q.027 5.022.046 10.044c.029 1.585.06 3.17.091 4.802-.038 10.784-.038 10.784-3.585 15.392-5.501 2.115-10.057 2.263-15.955 2.28l-3.414.014a653 653 0 0 1-7.121-.027 655 655 0 0 0-10.89.032q-3.465-.005-6.93-.019l-6.356-.019c-5.229-.669-5.229-.669-8.103-2.684-3.224-4.425-2.953-7.533-2.958-12.981-.016-2.048-.03-4.094-.045-6.202.01-2.248.02-4.496.033-6.81q-.011-3.586-.028-7.167c-.024-6.491-.015-12.981.002-19.47.012-6.789 0-13.576-.007-20.364q-.013-17.097.028-34.195c.027-13.184.019-26.37-.01-39.554q-.034-16.97-.014-33.94c.008-6.76.01-13.52-.007-20.28a2601 2601 0 0 1 .026-19.064c.008-3.45-.007-6.899-.023-10.349.016-2.046.03-4.092.045-6.2l.005-5.401c.652-4.422.652-4.422 2.957-7.515 8.14-5.905 18.955-4.193 28.531-4.238l5.695-.107c1.816-.01 3.633-.02 5.505-.028l5.02-.048c5.579.73 8.79 2.507 13.322 5.79 2.264 3.774 2.264 3.774 3.45 6.9l5.102-2.581 6.65-3.348 3.36-1.703c11.493-5.776 19.794-6.533 32.436-6.6M800.511 637.34c15.797 12.883 24.151 29.168 27.441 49.26.174 4.203.255 8.41.278 12.616l.026 3.752c.024 4.073.036 8.144.046 12.217l.03 8.514a8753 8753 0 0 1 .034 17.81c.009 7.612.052 15.225.1 22.838.033 5.853.042 11.708.043 17.563q.009 4.211.043 8.422c.03 3.92.026 7.837.014 11.757l.02 6.759c-.634 5.41-.634 5.41-3.046 8.65-8.358 5.85-18.577 4.05-28.424 4.091l-6.26.109-6.017.026c-1.822.017-3.644.032-5.519.05-5.688-.723-7.704-1.77-11.746-5.791-.861-4.579-.861-4.579-.861-10.16l-.052-6.336.043-6.86q-.019-3.53-.05-7.061c-.044-6.205-.055-12.409-.053-18.614.005-9.894-.02-19.787-.095-29.682-.017-3.436-.002-6.873.016-10.31-.068-11.744-.299-22.845-5.849-33.46-6.205-6.053-10.812-8.88-19.407-9.056-7.445.131-12.365 1.15-18.545 5.607-7.837 9.947-8.837 20.618-8.842 33.02l-.021 6.227-.005 6.65q-.048 6.99-.1 13.979c-.054 7.337-.094 14.674-.09 22.012q.004 7.198-.067 14.394a909 909 0 0 0-.03 13.547c-.027 2.04-.057 4.077-.086 6.178-.005 1.796-.012 3.592-.019 5.443-1.09 4.482-1.09 4.482-5.18 7.649-5.103 2.258-8.631 2.651-14.193 2.634l-5.482-.003c-1.87-.028-3.742-.056-5.67-.083l-5.692.015c-15.736-.105-15.736-.105-21.801-4.005-2.34-4.679-1.953-8.362-1.97-13.6-.02-3.196-.02-3.196-.037-6.458l-.01-3.462c-.012-3.585-.04-7.168-.07-10.753-.092-10.19-.175-20.382-.2-30.574-.018-6.234-.07-12.467-.14-18.701a650 650 0 0 1-.028-7.103c.019-14.794-.207-26.552-10.392-38.116-4.94-4.316-10.095-4.383-16.373-4.497l-4.468-.134c-5.084.674-7.26 2.535-11.165 5.74h-3.45c-5.543 13.553-5.91 25.66-5.877 40.197q-.024 3.537-.055 7.078c-.075 8.686-.094 17.372-.116 26.058-.02 7.376-.06 14.751-.128 22.127-.024 3.444-.015 6.887-.008 10.332l-.052 6.335c-.005 1.839-.009 3.676-.012 5.57-.739 5.412-2.096 7.765-5.828 11.686-8.653 3.476-19.296 2.187-28.464 2.265l-5.963.15-5.736.045c-1.725.024-3.452.05-5.232.076-6.021-1.054-7.991-2.77-11.533-7.712-.81-4.606-.81-4.606-.735-9.805l.044-5.71.151-5.94.052-5.92c.114-8.4.525-16.147 2.213-24.377.147-2.46.225-4.927.23-7.392l.005-4.068c-.005-1.377-.012-2.755-.019-4.173l.019-4.196-.005-4.06c-.004-1.21-.005-2.42-.007-3.666-.104-3.475-.104-3.475-1.082-6.628-.97-4.225-1.11-8.027-1.143-12.36-.018-1.705-.035-3.41-.05-5.165l-.023-5.543-.03-5.724q-.025-5.985-.034-11.97c-.017-6.11-.07-12.22-.126-18.331q-.016-5.817-.025-11.63c-.023-1.831-.044-3.66-.066-5.545l.015-5.163-.018-4.536c.778-4.98 2.334-7.345 5.81-10.958 4.911-.893 4.911-.893 10.828-.916l6.459-.027 6.755.08 6.737-.08c2.132.008 4.266.019 6.465.027 2.931.013 2.931.013 5.923.023 6.251 1.088 8.271 2.762 12.036 7.794 1.293 6.469 1.293 6.469 1.725 12.075 1.17-1.04 2.339-2.08 3.543-3.153 20.06-17.225 35.653-21.353 61.683-19.65 14.71 1.47 24.132 7.255 34.034 17.965 2.52 3.113 2.52 3.113 4.245 6.564 5.776-2.519 9.61-5.776 14.124-10.135 22.341-20.279 57.714-21.888 82.642-4.624"/><path fill="#FBD14B" d="m344.553 268.458 6.095-.05 6.588.033 6.838-.015q7.185-.01 14.37.027c6.05.03 12.1.012 18.152-.017 41.695-.176 79.972.093 112.281 29.803 15.957 16.871 23.061 38.181 22.897 61.025-.008 1.439-.019 2.877-.03 4.36-.463 23.787-7.576 45.671-24.228 63.134-31.574 29.492-71.85 27.541-112.562 28.68l-.076 5.275c-.1 6.47-.235 12.937-.378 19.406q-.085 4.194-.145 8.392a1225 1225 0 0 1-.245 12.076l-.033 3.78c-.153 5.289-.57 9.198-3.06 13.91-8.413 7.705-23.285 4.828-33.909 4.87l-6.667.11-6.426.025c-1.934.018-3.868.033-5.862.05-5.974-.693-9.19-2.13-13.928-5.79-1.765-5.293-1.951-8.907-1.969-14.45-.008-1.925-.019-3.85-.029-5.834l-.005-6.404-.026-6.742q-.034-9.159-.041-18.317-.009-5.722-.021-11.444-.036-17.905-.047-35.81a13755 13755 0 0 0-.088-41.333q-.056-15.975-.057-31.952c-.001-6.36-.012-12.722-.043-19.083-.034-7.095-.026-14.19-.015-21.286-.016-2.106-.031-4.212-.049-6.383.01-1.933.021-3.869.03-5.863l-.007-5.082c.96-6.934 4.021-11.498 8.967-16.34 4.83-2.693 8.206-2.749 13.728-2.76m67.651 83.474v25.877c11.935.441 20.572.747 31.052-5.176 2.174-4.347 1.584-6.648.97-11.428-.176-1.41-.35-2.82-.532-4.272l-.438-3.276c-11.2-5.485-19.307-7.597-31.052-1.725"/><path fill="#FEEC93" d="M760.673 201.85c8.167 5.343 14.167 11.27 17.251 20.7 1.213 14.826 1.213 14.826-1.725 20.701 8.217-3.251 15.4-7.059 22.777-11.927 6.759-4.085 12.62-4.232 20.35-3.599 9.832 2.93 16.032 7.894 20.964 16.887 2.964 7.73 3.14 15.017.135 22.763-3.263 6.084-7.346 10.975-12.473 15.553l4.204-.862c19.797-2.78 19.797-2.78 28.573 2.588 4.28 5.165 5.161 7.907 5.282 14.663-2.263 7.456-5.677 10.802-12.182 14.663-13.51 7.066-26.791 5.938-41.403 3.45 4.872 11.238 9.464 17.198 20.72 22.306 3.432 1.846 3.432 1.846 6.882 7.021.799 7.199.774 10.846-3.128 17.035-3.773 3.666-3.773 3.666-8.948 5.391-3.63-.103-7.26-.212-10.885-.374-14.926-1.132-14.926-1.132-27.714 5.334l-2.305 2.79c-3.862 4.517-7.69 5.882-13.524 6.57-15.416.066-25.696-4.882-38.727-12.595l-1.78 2.4c-7.504 9.502-14.693 15.357-26.867 17.29-13.704.735-24.762-3.62-35.337-12.298l-3.295-2.216c-5.027 1.205-9.194 2.872-13.8 5.175-3.337.257-6.683.381-10.028.431l-5.424.135c-7.687-.828-12.19-3.649-17.003-9.623-3.783-3.75-3.783-3.75-9.972-2.379-1.229.185-2.457.368-3.721.557-6.283.856-12.535.982-18.868 1.068-1.264.05-2.527.1-3.83.15-6.324.074-10.153-.481-15.644-3.709-3.777-4.2-4.706-5.765-4.677-11.32.452-7.835 3.143-12.144 8.558-17.677 4.99-4.164 10.14-7.66 16.78-7.66.07-1.531.142-3.061.216-4.636 2.015-7.632 5.45-9.942 11.86-14.34 3.341-1.402 3.341-1.402 6.9-1.726l5.714-.863c8.068 1.094 10.023 3.956 15.29 9.792 6.125 6.126 13.357 9.58 21.908 10.694 4.028-.35 4.028-.35 7.116-4.097 1.107-3.57 1.107-3.57 1.725-6.9l-4.421-.216c-9.706-2.47-15.76-8.155-20.903-16.644-4.234-10.345-4.275-22.856-1.146-33.606 4.96-9.556 14.762-17.998 24.745-21.988 13.352-1.641 23.083-.126 34.502 6.9l-.304-4.3c-.628-15.525 1.47-26.407 11.524-38.498 15.408-14.888 36.993-17.948 56.058-8.955"/><path fill="#FDE88A" d="M451.207 629.14c15.328 8.39 24.622 18.042 30.001 35.034 1.825 13.175.468 24.234-5.175 36.227l2.91.074c13.289.83 21.24 5.807 31.16 14.374 11.798 13.764 13.86 26.644 12.906 44.216-1.164 10.045-6.209 17.722-13.014 24.896-10.038 5.836-18.372 9.098-30.108 7.258-10.099-2.914-18.366-9.96-26.28-16.639l-.135 3.666c-.995 16.65-5.24 27.177-17.466 38.646-9.497 7.783-19.913 10.157-32.01 9.907-11.138-1.34-20.256-5.63-27.912-13.835-7.436-9.473-11.525-19.099-11.09-31.356.978-5.525 3.284-10.224 5.855-15.18 2.013-4.708 2.715-9.22 3.403-14.274l-3.652 2.58c-1.571 1.107-3.141 2.21-4.757 3.35l-4.73 3.336c-9.32 6.37-18.971 5.489-29.988 4.535-9.659-4.484-16.921-12.124-20.91-22.076-3.883-14.15-2.879-28.675 3.66-41.753 5.28-8.732 12.877-13.935 22.425-17.25 9.877-1.03 19.74-1.108 29.327 1.724l-1.725-5.175c-1.553-14.567.098-25.864 8.625-37.952 18.405-21.19 53.74-25.386 78.68-14.334"/><path fill="#FCD24C" d="M1005.632 641.748c16.37 13.164 24.686 30.41 31.051 50.028l1.725 5.175c.449 6.605.397 13.22.432 19.839.034 1.825.069 3.652.12 5.532 0 2.626 0 2.626.018 5.303l.051 4.856c-.62 4.147-.62 4.147-2.535 6.957-4.83 3.51-8.678 2.987-14.612 2.954l-3.467.001c-3.778-.003-7.556-.043-11.352-.084q-3.933-.015-7.866-.022c-6.893-.02-13.794-.071-20.692-.128-7.044-.054-14.086-.076-21.128-.102-13.814-.057-27.63-.145-41.445-.254.514 2.162 1.026 4.324 1.556 6.55l.876 3.685c1.993 6.985 5.024 11.9 11.03 16.087 12.566 6.581 26.467 6.845 40.07 3.409 7.226-2.502 13.807-5.467 20.323-9.46 6.288-3.453 8.84-4.593 15.845-3.02 5.071 3.564 9.384 7.74 13.8 12.076 1.07.925 2.14 1.851 3.244 2.803 2.898 2.588 2.898 2.588 7.107 7.548-.69 10.083-6.693 15.82-13.8 22.426-26.262 20.085-54.22 22.837-86.25 20.701-7.927-1.14-15.13-3.623-22.427-6.9-1.381-.606-2.761-1.21-4.185-1.832-25.276-12.573-38.417-34.499-47.567-60.272-5.226-22.248-5.193-51.913 5.175-72.454l2.217-4.825c12.011-24.225 30.851-39.394 55.769-49.124 28.852-8.784 62.075-4.105 86.917 12.547M1502.027 625.684l5.124.03c19.821.332 34.191 4.664 50.51 16.034l3.347 2.305c17.493 13.481 25.687 35.223 29.43 56.348.449 6.107.484 12.209.553 18.33l.138 4.987.051 4.783c.018 1.436.052 2.873.07 4.351-.811 3.776-.811 3.776-3.606 6.564-5.348 3.119-9.005 3.01-15.181 2.976-3.364-.002-3.364-.002-6.797-.002-2.45-.026-4.882-.053-7.331-.081q-3.752-.015-7.505-.022c-6.59-.02-13.162-.071-19.735-.128-6.728-.054-13.438-.076-20.166-.102-13.163-.057-26.342-.145-39.522-.254.483 2.488.983 4.972 1.484 7.453.414 2.075.414 2.075.845 4.194 2.312 7.966 8.056 11.52 14.922 15.524 15.543 6.474 29.516 4.59 45.094-.896 5.779-2.485 10.661-5.563 15.612-9.441 3.122-1.308 3.122-1.308 7.142-.37 5.813 3.172 10.678 7.075 15.612 11.462 1.432 1.182 1.432 1.182 2.915 2.388 2.726 2.43 2.726 2.43 6.78 7.639.086 10.197-3.105 15.343-9.885 22.453-20.373 17.845-43.645 22.948-69.9 23.155l-5.262.053c-23.496-.278-44.439-8.815-61.586-24.96-19.804-22.9-28.809-49.593-28.084-79.758 2.139-28.24 11.402-52.835 32.138-72.435 18.459-15.664 38.78-22.723 62.793-22.58M1204.017 640.023c18.994 14.277 31.225 33.215 35.727 56.73 1.018 7.342 1.19 14.684 1.26 22.086l.051 4.568c-.034 2.125-.034 2.125-.052 4.292l-.051 3.833c-.897 4.294-2.519 5.81-5.883 8.546-4.847 2.426-8.867 1.932-14.284 1.922h-3.364a3353 3353 0 0 1-11.04-.027l-7.642-.01c-6.711-.004-13.422-.022-20.132-.04-6.849-.018-13.697-.026-20.529-.035q-20.158-.029-40.315-.085c.776 2.188 1.57 4.37 2.363 6.55.431 1.217.88 2.433 1.328 3.685 3.571 8.572 9.109 13.862 17.234 18.014 15.215 6.022 31.431 3.43 46.353-2.372 3.727-2.129 7.177-4.358 10.61-6.921 4.571-2.443 6.659-2.693 11.817-1.705 4.692 3.025 8.66 6.661 12.73 10.46 1.122.967 2.26 1.935 3.417 2.934 3.122 2.874 5.692 5.475 8.004 9.033.155 6.393-.466 10.035-3.795 15.472-22.65 21.59-47.906 28.716-78.337 28.345-28.93-.854-50.373-10.43-70.556-31.554-19.407-24.282-23.34-52.87-21.547-82.992 3.537-27.955 17.269-49.478 38.936-67.063 30.396-22.363 76.042-25.908 107.697-3.666M1740.746 335.76c16.457 13.591 25.635 29.455 29.102 50.674.19 4.256.276 8.515.31 12.774.018 1.255.018 2.51.035 3.803.035 4.13.052 8.258.07 12.386 0 1.413.017 2.825.017 4.281.034 7.468.069 14.935.086 22.4.017 7.719.069 15.435.138 23.152.052 5.934.069 11.868.069 17.802.017 2.847.034 5.693.069 8.54.034 3.973.034 7.944.017 11.917.017 2.261.017 4.521.035 6.852-.846 5.475-.846 5.475-4.106 8.76-9.195 4.785-19.39 3.931-29.517 3.94-1.535.02-3.07.041-4.64.064-14.646.032-14.646.032-21.236-3.839-4.002-6.024-3.881-8.403-3.881-15.52-.018-2.13-.035-4.261-.035-6.457v-3.45q0-5.365-.052-10.73a4496 4496 0 0 1-.138-30.509c0-6.224-.051-12.45-.103-18.674-.017-2.363-.035-4.725-.017-7.087.051-13.521-.156-23.83-7.85-35.23-8.056-4.866-14.8-6.212-24.15-5.175-4.762 2.429-4.762 2.429-8.626 5.175h-3.45a451 451 0 0 0-3.45 6.9c-.88 1.602-1.76 3.203-2.657 4.852-4.106 9.678-3.278 20.095-3.278 30.425l-.104 10.2c-.051 4.738-.069 9.473-.086 14.209-.034 8.31-.086 16.62-.172 24.927-.052 4.418-.07 8.836-.087 13.254l-.051 6.055c0 1.756-.018 3.512-.018 5.322-.448 4.73-1.31 7.55-3.898 11.513-7.418 3.71-17.303 2.117-25.532 2.14-3.657.017-7.331.07-10.989.125-2.328.01-4.64.02-6.969.026-2.122.018-4.244.033-6.417.05-5.296-.616-5.296-.616-8.16-2.784-2.864-3.73-2.967-5.667-2.984-10.328a412 412 0 0 0-.07-4.522c.018-1.632.018-3.263.018-4.945-.017-1.724-.017-3.445-.035-5.22-.051-5.709-.051-11.416-.051-17.124 0-3.959-.018-7.918-.035-11.879-.017-8.304-.017-16.61-.017-24.915.017-10.653-.035-21.305-.104-31.958-.051-8.18-.051-16.359-.051-24.537q0-5.894-.052-11.786c-.035-5.49-.017-10.975.017-16.465a453 453 0 0 1-.069-4.935c.138-10.99.138-10.99 5.193-16.535 5.485-2.935 9.143-3.333 15.353-3.359 2.036-.009 4.088-.017 6.193-.028l6.417.082 6.435-.082c2.036.01 4.071.02 6.176.028l5.64.023c6.039 1.095 8.092 3.017 11.818 7.793.88 4.798.328 8.878 0 13.801h3.45v-3.45c25.014-22.299 55.79-28.674 86.479-12.723"/><path fill="#FEEA8F" d="M1386.101 339.068c11.696 8.357 20.132 19.349 23.203 33.565 1.483 14.069-1.311 25.068-6.9 37.952 1.069.006 2.138.01 3.225.014 12.231.56 20.546 3.668 29.551 12.062 8.557 9.923 9.799 19.794 9.23 32.622-1.122 9.896-3.278 17.483-11.059 24.2-8.987 6.315-16.63 6.863-27.498 5.281-5.727-2.818-10.609-6.275-15.525-10.35.276 1.23.552 2.46.845 3.726 1.794 9.95 2.156 19.916-.949 29.59-6.642 9.221-14.404 16.116-25.773 18.437-11.247 1.106-19.7-.816-29.326-6.9-10.385-9.368-12.076-16.91-13.042-30.621-.138-2.018-.293-4.039-.431-6.119-.104-1.539-.207-3.078-.328-4.663l-3.52 2.203c-1.552.945-3.087 1.89-4.674 2.865l-4.606 2.85c-10.247 5.609-22.979 6.162-34.209 3.1-10.661-4.73-18.752-13.069-23.893-23.504-5.365-14.54-4.537-28.675 1.898-42.717 8.022-12.277 17.113-18.338 31.052-22.426l-1.725-4.851c-3.33-12.093-3.485-23.72 1.725-35.258 9.022-15.91 23.858-24.856 41.23-29.833 20.287-4.401 43.782-1.941 61.5 8.775"/><path fill="#FCD24C" d="M1229.946 338.9c6.486 5.233 11.713 10.68 15.474 18.208 0 8.615-2.933 12.746-8.626 18.976-4.71 3.841-9.66 7.317-14.663 10.781-1.311.934-2.622 1.869-3.968 2.831-11.73 8.22-11.73 8.22-17.596 8.814-2.64-2.079-5.261-4.173-7.78-6.416-6.693-5.751-14.128-6.519-22.668-6.32-9.177 1.497-15.698 7.03-21.943 13.598-7.349 11.301-7.539 22.19-6.262 35.365 3.243 11.515 10.35 18.319 20.477 24.34 8.505 3.553 18.717 2.902 27.308-.075 2.812-1.239 5.59-2.55 8.315-3.949 6.314-1.973 9.988-1.444 16.354.385 4.727 3.481 8.625 7.568 12.628 11.86 1.07 1.1 2.122 2.201 3.226 3.336 11.247 11.69 11.247 11.69 12.73 18.768-1.724 10.15-8.987 16.281-16.819 22.512-21.495 15.029-48.647 18.007-74.23 13.594-26.515-6.347-45.146-20.838-59.465-43.438-14.818-26.812-17.63-60.327-9.815-89.92 1.259-3.666 2.622-7.301 4.088-10.891.742-1.8 1.466-3.599 2.225-5.451 9.885-21.775 25.842-37.839 48.13-46.787 30.862-10.602 65.571-9.591 92.88 9.878"/><path fill="#FBD14C" d="M1330.07 582.664c3.226-.068 3.226-.068 6.52-.135 5.435.566 5.435.566 8.316 2.591 3.157 4.315 3.036 7.399 3.174 12.712.07 1.851.138 3.702.19 5.61.069 2.897.069 2.897.12 5.854.052 1.95.121 3.902.173 5.911.155 4.822.259 9.644.362 14.465l37.952 1.725c3.658 7.294 2.122 16.894 2.157 24.907.034 1.998.069 3.996.12 6.054 0 2.87 0 2.87.018 5.8l.052 5.325c-.725 5.311-1.588 6.474-5.797 9.667-3.916.589-3.916.589-8.418.506-1.622-.018-3.243-.033-4.917-.05-1.673-.043-3.364-.088-5.089-.131-1.708-.025-3.415-.047-5.175-.071q-6.315-.093-12.628-.254.13 15.564.363 31.124.077 5.291.103 10.582c.035 5.079.12 10.158.207 15.236.017 1.568.017 3.138.017 4.755.225 9.808 1.501 15.315 7.936 22.833 6.52 3.752 12.852 4.026 20.27 4.421 10.609.582 10.609.582 12.507 2.48.448 7.141.327 14.302.327 21.456.018 2.02.035 4.04.07 6.12v5.84c.017 1.779.017 3.555.034 5.388-.431 4.323-.431 4.323-3.882 7.773-9.522 3.352-20.46 2.115-30.396 2.156l-6.452.109c-19.355.08-34.967-2.476-49.406-16.066-14.112-14.334-14.577-35.811-14.68-54.8-.053-3-.053-3-.087-6.06-.104-6.308-.155-12.617-.207-18.926-.07-4.31-.121-8.62-.19-12.93a9582 9582 0 0 1-.362-31.49l-5.538-.196-7.176-.343c-1.208-.04-2.415-.08-3.657-.119-3.502-.185-3.502-.185-9.506-1.068-3.864-5.805-3.881-7.823-3.898-14.617-.018-2.753-.018-2.753-.018-5.561.018-1.917.018-3.832.035-5.805-.017-1.924-.017-3.845-.035-5.826 0-1.834 0-3.667.018-5.556v-5.101c.448-4.111.448-4.111 3.898-7.562 4.434-.527 8.712-.881 13.163-1.078l3.692-.202c3.001-.162 6.02-.305 9.022-.445.034-1 .052-1.999.086-3.03.12-4.562.293-9.121.466-13.68.034-1.574.069-3.147.103-4.769.604-15.07.604-15.07 6.245-21.648 12.524-4.173 26.67-3.65 39.798-3.881"/><path fill="#D35822" d="m808.57 391.104 4.652.05c1.587.045 3.174.088 4.81.133 1.616.022 3.228.046 4.893.07q5.964.09 11.928.252c-2.398 22.611-6.514 44.763-10.891 67.063q-1.582 8.122-3.162 16.242-1.035 5.323-2.075 10.644a1854 1854 0 0 0-5.545 29.632c-.374 2.072-.75 4.144-1.137 6.278-.653 3.641-1.292 7.286-1.908 10.935-1.994 10.925-4.597 19.116-13.788 26.156-22.647 10.333-52.71 11.028-77.076 10.735-.22-39.054.05-78.052 1.404-117.085.25-7.443.371-14.876.395-22.323l.075-5.132c.043-2.985.043-5.97-.01-8.955.124-5.286.519-9.235 4.188-13.202 5.25-3.975 8.04-5.842 14.756-5.704a219 219 0 0 1 9.88 3.41c14.097 4.219 30.274 3.077 43.491-3.518l3.142-2.659c4.438-2.972 6.696-3.124 11.979-3.022"/><path fill="#D25721" d="M569.188 391.61c38.349-1.72 38.349-1.72 53.478 8.625 11.425 3.809 22.842 2.429 34.07-1.4 8.003-2.483 8.003-2.483 12.749-.534 3.209 2.365 3.209 2.365 5.903 4.872 2.628 2.67 2.628 2.67 7.656 3.962l5.176 162.16c-65.366 0-65.366 0-85.244-17.592-4.64-5.272-5.598-10.8-6.773-17.582l-.863-4.287c-.924-4.647-1.78-9.303-2.634-13.964q-.95-4.874-1.91-9.744a3145 3145 0 0 1-4.88-25.614c-1.637-8.682-3.33-17.353-5.016-26.025a7322 7322 0 0 1-7.29-38.055l-.756-3.994a852 852 0 0 1-3.666-20.829"/><path fill="#FCD24C" d="M1728.446 626.222c2.76 1.884 2.76 1.884 5.175 5.175.656 5.416.656 5.416.639 12.023v3.536q0 3.697-.052 7.396c-.035 3.77-.035 7.54-.017 11.311-.087 18.49-.087 18.49-4.02 24.388-4.692.64-4.692.64-10.454.755-13.663.799-23.962 3.409-33.415 13.692-9.264 11.127-8.367 24.109-8.35 37.81l-.103 12.565c-.052 6.588-.069 13.174-.086 19.762-.017 6.37-.07 12.735-.138 19.104.017 1.977.017 3.956.034 5.995-.034 1.83-.051 3.662-.069 5.55-.017 1.61-.017 3.224-.017 4.885-.88 4.088-.88 4.088-4.157 7.164-8.954 5.193-19.425 4.14-29.5 4.15-1.535.02-3.07.04-4.64.063-14.646.033-14.646.033-21.236-3.838-3.536-5.305-3.881-6.385-3.899-12.366l-.034-4.433c0-1.601.017-3.2.017-4.85-.017-1.688-.017-3.377-.034-5.118-.018-5.594-.018-11.189-.018-16.785 0-3.883-.017-7.765-.017-11.648q-.026-12.214 0-24.427c0-10.446-.017-20.888-.069-31.333-.017-8.018-.017-16.038-.017-24.058 0-3.85-.017-7.703-.035-11.553-.017-5.38 0-10.761.018-16.144-.018-1.595-.018-3.193-.035-4.837.086-10.71.086-10.71 2.984-16.299 4.572-3.917 8.66-3.294 14.577-3.255l3.433.005c2.398.01 4.779.038 7.177.08 3.657.064 7.314.07 10.989.07 17.94.132 17.94.132 21.891 4.09.725 3.734.725 3.734 1.087 7.98.12 1.409.259 2.82.38 4.272.086 1.08.172 2.162.258 3.274 1.467-1.164 2.916-2.33 4.434-3.53 30.69-24.264 30.69-24.264 47.319-20.62"/><path fill="#FBD14C" d="M1566.287 326.056c4.675 3.557 5.831 6.417 6.9 12.075.397 7.436.328 14.876.328 22.32.018 2.035.035 4.071.07 6.169v5.953c.017 1.79.017 3.58.034 5.424-.449 5.29-1.294 8.97-3.882 13.612-4.847 1.25-9.074 1.972-14.007 2.481-11.507 1.61-21.65 3.278-29.12 13.045-5.952 10.892-5.934 20.708-5.934 32.953-.018 1.99-.052 3.983-.07 6.036-.068 6.338-.103 12.678-.137 19.018q-.053 9.527-.156 19.055c-.051 3.945-.069 7.89-.086 11.836l-.052 5.427c0 1.57-.017 3.138-.017 4.754-.5 4.932-1.69 8.62-3.899 13.052-7.28 3.642-16.785 2.117-24.79 2.14-3.536.017-7.072.07-10.608.125l-6.746.026c-2.052.018-4.088.033-6.21.05-5.123-.616-5.123-.616-8.367-2.648-2.656-4.345-2.57-7.521-2.553-12.596v-5.659c.035-1.95.052-3.902.086-5.912 0-1.918-.017-3.836-.017-5.813.07-10.696 1.122-19.82 4.002-30.09.604-5.078.604-5.078.552-9.92.018-1.556.052-3.114.087-4.717-.57-5.373-1.656-9.54-3.209-14.67-3.881-14.99-3.502-30.225-3.467-45.613 0-5.222-.07-10.439-.138-15.659-.018-3.336-.018-6.672-.018-10.01-.034-1.551-.051-3.102-.086-4.7.086-7.707.31-10.988 5.158-17.268 8.764-6.465 17.32-5.417 27.757-5.423 1.656-.023 3.295-.044 4.985-.066l4.813-.009 4.4-.022c4.433.462 7.193 1.446 10.92 3.87 1.431 4.11 1.431 4.11 2.156 8.84.258 1.57.517 3.14.793 4.758.242 1.808.242 1.808.5 3.652.898-1 1.812-2 2.743-3.032 11.904-12.64 28.344-27.935 47.285-22.844"/><path fill="#FDD046" d="m696.845 263.952 5.175 1.726c1.941 6.907 1.551 10.224-1.618 16.604-4.081 9.529-5.129 17.978-3.557 28.248 3.982 8.601 10.295 15.076 18.976 18.976 12.148 2.348 24.044-.48 34.502-6.9 8.339-7.6 16.83-15.944 17.587-27.63l-.12-5.578-.095-5.635-.121-4.285c-5.19-1.73-9.554-2.248-14.988-2.694l-5.194-.438-3.97-.318c.539-4.097.539-4.097 1.726-8.625 7.342-4.894 13.806-4.551 22.426-3.45 6.852 3.488 11.682 7.138 15.526 13.8.367 4.611.491 8.786.322 13.37l-.07 3.645c-.06 2.955-.154 5.908-.252 8.862.96.314 1.92.628 2.91.95q4.135 1.362 8.254 2.762a268 268 0 0 0 8.343 2.655c9.243 2.969 9.243 2.969 12.083 7.973l1.186 4.636c3.46 9.765 8.18 12.66 17.15 16.947 3.552 2.029 3.552 2.029 7.002 7.204.799 7.199.774 10.846-3.128 17.035-3.773 3.666-3.773 3.666-8.948 5.391-3.63-.103-7.26-.212-10.885-.374-14.926-1.132-14.926-1.132-27.714 5.334l-2.305 2.79c-3.862 4.517-7.69 5.882-13.524 6.57-16.13.07-26.046-4.744-38.727-14.32l3.45-25.876-5.87.364c-25.245 1.099-25.245 1.099-36.005-7.77l-2.977-2.945-2.655-2.567c-8.267-8.967-12.22-19.069-11.746-31.14 2.032-14.38 7.81-25.027 17.851-35.297"/><path fill="#FDEB93" d="M745.148 398.51q4.915 1.36 9.838 2.696l5.184 1.408 3.954 1.071c-1.798 34.835-4.206 69.6-7.01 104.368-.151 1.886-.301 3.771-.458 5.714q-.66 8.168-1.327 16.335l-.397 4.885a1515 1515 0 0 1-2.884 30.857c-7.889 2.869-14.461 3.65-22.885 3.559l-5.622-.049-4.27-.06c-.22-39.054.05-78.052 1.404-117.085.25-7.443.371-14.876.395-22.323l.075-5.132c.043-2.985.043-5.97-.01-8.955.124-5.296.512-9.238 4.207-13.199 7.183-5.406 10.875-6.838 19.806-4.09"/><path fill="#FDEC94" d="M678.86 402.567c9.663 10.553 7.117 27.538 7.169 41.05q.12 5.433.267 10.863c.233 9.513.352 19.023.45 28.537.12 9.714.344 19.426.56 29.14.408 19.045.698 38.089.914 57.137q-5.285.069-10.567.109l-5.944.06c-5.593-.16-10.78-.835-16.266-1.894-1.815-6.203-2.315-12.32-2.845-18.752l-.298-3.572q-.483-5.854-.954-11.707-.338-4.107-.677-8.217-.71-8.634-1.409-17.271-.889-10.933-1.792-21.862-.702-8.509-1.394-17.017l-.661-8.04c-1.575-19.135-2.788-38.272-3.771-57.446 14.279-5.834 23.104-9.245 37.219-1.118"/><path fill="#D35722" d="M722.721 407.135c.371 32.032-.688 64.034-1.599 96.048q-.317 11.209-.624 22.418-.607 21.847-1.227 43.693-7.708.069-15.419.109c-1.466.014-2.932.027-4.444.043-1.395.005-2.79.01-4.228.017-1.292.009-2.584.017-3.914.028-3.046-.197-3.046-.197-4.772-1.922-.264-2.933-.412-5.877-.512-8.82l-.209-5.745c-.067-2.08-.134-4.16-.201-6.305l-.226-6.51q-.295-8.716-.57-17.433-.17-5.37-.35-10.74c-1.126-34.39-1.932-68.747-1.382-103.156 1.787.021 3.576.04 5.417.06q3.545.026 7.09.049c1.765.02 1.765.02 3.564.043 8.129.04 15.564-1.877 23.606-1.877"/><path fill="#4B3613" d="M985.258 391.61c10.075 5.492 16.75 13.257 20.374 24.15 2.104 27.138 2.104 27.138-6.9 37.953-10.315 9.791-21.13 14.801-35.462 14.461-9.926-1.556-18.534-6.433-25.667-13.383-7.53-12.65-9.606-22.497-7.87-37.305 3.038-10.83 9.814-17.934 18.976-24.152 12.565-6.981 23.495-7.526 36.55-1.725"/><path fill="#EFC332" d="M802.076 391.61h32.777c-2.514 22.61-6.513 44.747-10.891 67.062q-1.582 8.122-3.162 16.242-1.035 5.323-2.075 10.644a1854 1854 0 0 0-5.545 29.632c-.374 2.072-.75 4.144-1.137 6.278-.653 3.641-1.292 7.286-1.908 10.935-2.027 11.11-4.575 19.114-13.881 26.218-4.984 2.253-9.464 3.143-14.88 3.773-.446-11.48 1.265-22.511 2.91-33.855q.706-4.985 1.409-9.971.755-5.368 1.52-10.736c1.873-13.253 3.682-26.516 5.482-39.779l.553-4.078c3.266-24.087 6.181-48.202 8.828-72.366"/><path fill="#EFC230" d="M569.188 391.61h34.502q1.516 11.913 3.019 23.828c.153 1.225.309 2.451.467 3.714 2.6 20.672 4.977 41.363 7.287 62.07 2.236 19.965 4.861 39.842 7.825 59.715.276 1.85.552 3.7.835 5.608.245 1.612.492 3.224.744 4.886.524 4.062.524 4.062.524 9.238-9.504-.389-14.398-2.591-21.448-8.935-4.575-5.315-5.565-10.833-6.74-17.613l-.863-4.287c-.924-4.647-1.78-9.303-2.634-13.964q-.95-4.874-1.91-9.744a3145 3145 0 0 1-4.88-25.614c-1.637-8.682-3.33-17.353-5.016-26.025a7322 7322 0 0 1-7.29-38.055l-.756-3.994a1023 1023 0 0 1-3.666-20.829"/><path fill="#483412" d="M393.228 329.506c7.475-.202 14.95-.323 22.427-.431 2.104-.057 4.21-.116 6.38-.174 12.57-.137 20.962.567 31.572 7.505 8.411 8.855 11.163 16.139 10.895 28.175-1.13 9.526-4.745 17.197-11.22 24.225-13.041 7.535-25.362 8.726-40.215 8.41l-5.23-.028c-12.616-.136-12.616-.136-14.609-2.128a384 384 0 0 1-.169-14.508c.004-1.453.006-2.906.007-4.403.01-4.658.033-9.315.054-13.973l.024-9.452q.03-11.61.084-23.218m18.976 22.426v25.877c11.935.441 20.572.747 31.052-5.176 2.174-4.347 1.584-6.648.97-11.428-.176-1.41-.35-2.82-.532-4.272l-.438-3.276c-11.2-5.485-19.307-7.597-31.052-1.725"/><path fill="#FCD753" d="M614.579 309.667c8.083 1.096 10.233 4.03 15.493 9.92 3.883 3.981 8.27 5.92 13.295 8.194l1.725 3.45c3.478 1.956 3.478 1.956 6.9 3.45l-1.725 3.45c-9.919-1.509-9.919-1.509-13.8-3.45v-3.45h-13.801c-.247 1.729-.493 3.455-.749 5.236l-4.426 30.991c-9.792 2.765-18.63 4.08-28.789 4.097l-3.83.128c-6.31.034-10.172-.576-15.644-3.8-3.78-4.196-4.706-5.759-4.677-11.314.452-7.835 3.143-12.144 8.558-17.677 4.99-4.164 10.14-7.66 16.78-7.66.07-1.531.142-3.061.216-4.636 2.015-7.632 5.45-9.942 11.86-14.34 4.185-1.755 8.084-1.905 12.614-2.589"/><path fill="#FAC82A" d="m696.845 263.952 5.175 1.726c1.941 6.907 1.551 10.224-1.618 16.604-4.081 9.529-5.129 17.978-3.557 28.248 3.976 8.59 10.295 15.093 18.976 18.976 12.09 2.155 23.161-1.121 34.502-5.175-5.365 5.672-10.378 10.07-17.251 13.8l3.45 3.45c-8.142 4.072-18.796 2.723-27.601 1.726-12.518-5.138-20.9-14.757-27.28-26.415-4.712-14.639-1.918-27.22 4.853-40.864 3.183-4.48 6.492-8.129 10.351-12.076"/><path fill="#4E3814" d="M968.156 679.236c7.766 5.71 9.767 11.98 11.604 21.165h-62.103c2.1-10.5 6.067-15.301 13.8-22.426 11.785-6.148 25.285-5.174 36.699 1.261"/><path fill="#4B3513" d="M1523.16 679.7c7.055 6.685 7.487 10.65 10.35 20.701h-62.103c3.95-13.806 7.746-18.032 19.735-24.798 11.403-2.78 21.77-1.573 32.018 4.097"/><path fill="#503A15" d="M1165.634 676.466c6.883 3.964 9.833 6.984 14.232 13.585.863 5.123.863 5.123 1.725 10.35h-60.378c2.105-12.62 2.105-12.62 8.625-18.976 11.628-8.07 22.427-8.974 35.796-4.96"/><path fill="#FAC82A" d="m446.922 696.844 4.758.047 3.652.06c-.357 3.128-.357 3.128-1.725 6.9-3.578 2.588-3.578 2.588-8.088 5.176-10.695 7.014-14.823 15.988-19.514 27.601l-5.175-1.725c-2.558-6.046-2.28-12.538-1.725-18.976 6.288-11.877 14.294-19.257 27.817-19.083"/><path fill="#FACA2F" d="M1285.097 391.61c14.197-.62 24.013-.944 35.157 8.734 4.072 7.354 3.381 14.09 2.795 22.317-6.141-2.712-9.005-6.046-13.214-11.28-7.16-7.817-16.527-8.564-26.463-9.421z"/><path fill="#F6C53B" d="M620.94 313.98c5.913 3.916 10.935 8.394 15.527 13.8v3.451h-43.128c0-8.625 0-8.625 3.126-12.507 7.149-5.719 15.687-6.71 24.476-4.744"/><path fill="#231205" d="M1164.461 676.25c1.087.57 2.19 1.138 3.33 1.725-5.607 1.868-9.23 1.677-15.095 1.403-9.954-.06-15.095.945-22.858 7.222l-5.175 10.351h56.928v3.45h-60.378c2.105-12.62 2.105-12.62 8.625-18.976 10.938-7.588 21.944-9.312 34.623-5.175"/><path fill="#FBE265" d="m738.247 367.458 6.9 5.175c.9-.6 1.796-1.2 2.723-1.82 5.767-2.25 9.776-1.209 15.822-.12 3.028.528 3.028.528 6.12 1.064 2.307.435 2.307.435 4.662.876v5.176l12.076-1.725c-4.114 4.3-6.573 6.722-12.69 7.25-14.77.245-24.484-1.972-35.613-12.426z"/><path fill="#FAC51F" d="M1381.702 417.486c-.638 5.563-1.466 8.323-5.054 12.722-4.003 4.487-4.003 4.487-5.4 10.998l-1.622 5.606-5.175 1.726c-4.106-4.11-4.002-5.262-4.088-10.89.12-5.942.534-7.92 3.778-13.153 6.02-5.691 9.367-7.453 17.561-7.01"/><path fill="#F9DF53" d="M1597.339 331.231c7.625-.2 15.25-.322 22.857-.431l6.556-.174c2.087-.023 4.157-.045 6.314-.07 1.914-.034 3.83-.07 5.796-.108 6.193.96 8.177 2.79 11.955 7.683.88 4.798.328 8.878 0 13.801l5.175-1.725-1.725 5.175-5.175-1.725-3.45-17.25-4.054.082c-6.056.107-12.093.174-18.148.242l-6.4.13-6.09.05-5.641.084-4.52-.589z"/><path fill="#211004" d="M924.557 684.875c0 5.176 0 5.176-3.45 12.076l53.478-1.725-3.45-10.35c6.214 5.413 6.892 6.864 8.625 15.525h-62.103c1.544-7.725 2.156-9.957 6.9-15.526"/><path fill="#463613" d="M1692.22 814.257c1.293 2.804 1.293 2.804 1.724 6.9-4.658 9.31-9.867 12.939-18.976 17.252-9.488 2.368-18.941 2.042-28.67 2.05-1.812.02-3.624.04-5.487.063l-5.261.01-4.779.021c-4.106-.42-4.106-.42-9.28-3.87l4.433-.075c5.451-.105 10.92-.235 16.37-.376a879 879 0 0 1 7.074-.145c3.398-.059 6.797-.152 10.195-.245l6.193-.138c6.331-.818 10.558-2.886 16.112-5.92h3.45c.501-1.28 1.001-2.562 1.519-3.882a143 143 0 0 1 5.382-11.645"/><path fill="#261606" d="m834.853 274.303 1.725 3.45c1.707-.107 3.415-.214 5.175-.322 7.573.029 14.085 1.789 20.701 5.497 4.32 4.86 5.077 8.045 6.145 14.448-1.304 8.412-4.844 12.931-11.32 18.33-5.822 2.48-5.822 2.48-10.35 3.45v-3.45c3.363-2.3 6.882-4.208 10.443-6.187 3.866-2.81 5.211-4.865 6.807-9.34-.566-5.539-1.69-10.243-3.45-15.525-10.632-4.03-23.582-1.858-34.502 0z"/><path fill="#4B3712" d="m556.236 612.085 6.267.033 6.47.088 6.59.046q8.025.063 16.051.17l1.725 3.45-4.56.048q-8.445.118-16.888.31-3.64.073-7.283.11c-18.635.179-18.635.179-35.097 8.157l-3.45-1.725c9.446-8.336 17.665-10.806 30.175-10.687"/><path fill="#483410" d="m653.502 608.864 6.024.047 4.542.06-1.725 5.176q-7.979.434-15.957.862c-1.506.083-3.012.164-4.563.25l-4.413.235-4.052.219c-3.562.148-7.128.159-10.692.159l-3.45 6.9-6.9-1.725c3.636-4.032 6.648-6.147 11.75-7.979l3.377-1.252c8.706-2.533 17.025-3.045 26.059-2.952"/><path fill="#251204" d="M1526.61 686.6c5.555 4.586 5.33 5.886 6.9 13.801h-56.928v-3.45h53.478z"/><path fill="#FAC521" d="m757.546 263.737 6.578.215v1.726l-3.337.633-4.32.876-4.305.849-3.564 1.092-1.725 3.45 5.39-.323c7.224.349 11.014 1.577 17.036 5.498 4.382 6.726 3.61 12.167 2.688 19.866-1.382 6.15-3.904 9.783-7.863 14.636 0-5.175 0-5.175 1.71-8.275 2.304-5.034 2.075-9.074 1.955-14.582l-.094-5.635-.121-4.285c-5.19-1.73-9.554-2.248-14.988-2.694l-5.194-.438-3.97-.318c.539-4.097.539-4.097 1.726-8.625 5.328-3.552 6.398-3.863 12.398-3.666"/><path fill="#231405" d="M479.483 657.274c5.272 5.273 5.115 9.196 5.498 16.604-.08 8.479-1.884 16.563-3.773 24.798l5.176.324c8.173 1.129 14.056 5.39 20.7 10.027l5.176 3.45-1.725 3.45-3.093-2.142-4.132-2.818c-2.011-1.38-2.011-1.38-4.062-2.79-7.517-4.612-14.515-6.561-23.215-7.776l1.711-5.929c1.974-7.892 2.136-15.303 1.955-23.397l-.049-4.05c-.04-3.251-.101-6.501-.167-9.751"/><path fill="#060200" d="M1613.365 328.866h3.502a634 634 0 0 0 10.558-.135l6.727-.02 6.176-.043c6.418 1.01 8.332 2.622 12.214 7.738 2.277 6.254 2.277 6.254 3.45 12.076l-1.725 3.45h-3.45c-.207-1.225-.414-2.45-.621-3.712-.449-2.38-.449-2.38-.88-4.805-.293-1.581-.57-3.162-.845-4.792-.363-1.3-.725-2.601-1.104-3.942-5.038-2.52-9.488-1.916-15.112-1.894-1.139.004-2.277.005-3.45.009-3.658.008-7.315.03-10.972.053-2.484.009-4.968.016-7.435.023-6.072.019-12.162.05-18.234.084 5.779-5.78 13.352-4.02 21.201-4.09"/><path fill="#2F200A" d="M1442.08 520.991c.811.708 1.622 1.415 2.467 2.143 1.07.93 2.14 1.86 3.26 2.817 1.588 1.382 1.588 1.382 3.21 2.79 8.263 6.83 15.266 7.875 25.72 8.321l4.865.22 5.02.207a6676 6676 0 0 0 17.562.753v1.725c-6.642.152-13.3.244-19.942.325l-5.676.13c-13.61.125-22.288-.898-32.915-9.943-3.57-4.312-3.57-4.312-3.57-9.488"/><path fill="#FDF2A6" d="M1381.702 422.661c0 5.175 0 5.175-3.226 9.057-4.209 5.451-5.468 10.193-7.124 16.82-1.726 1.725-1.726 1.725-6.142 1.833l-4.209-.108c-3.209-5.39-3.795-8.786-3.019-14.986.155-1.36.31-2.719.466-4.118.276-1.097.552-2.193.828-3.323l3.45-1.725v18.976l6.9 1.725c.156-1.02.311-2.04.449-3.093 1.76-9.841 3.864-14.716 11.627-21.058"/><path fill="#382008" d="M1674.968 631.397c1.984 3.734 1.984 3.734 3.14 7.979.397 1.41.793 2.82 1.207 4.273.276 1.08.552 2.162.828 3.274l-5.175 5.176c-.103-1.225-.207-2.45-.31-3.713-.225-2.379-.225-2.379-.432-4.804a359 359 0 0 1-.431-4.793c-.138-3.876-.138-3.876-2.277-5.666-3.45-.273-6.9-.433-10.35-.546l-6.349-.219c-2.208-.069-4.416-.136-6.693-.205-2.208-.076-4.434-.15-6.711-.226-5.486-.185-10.972-.36-16.475-.53v-1.725c6.728-.39 13.439-.738 20.167-1.078l5.762-.336 5.572-.27 5.123-.274c5.227.256 8.764 1.298 13.404 3.683"/><path fill="#231405" d="m698.57 215.65 1.725 3.45-2.372 4.853c-4.337 9.305-4.088 19.55-4.528 29.649-6.418-2.115-12.728-4.327-18.976-6.9 4.447-1.59 6.2-2.045 10.592-.04 1.06.581 2.118 1.164 3.209 1.765l.512-4.104c1.584-11.13 3.486-19.358 9.838-28.673"/><path fill="#F9E85B" d="m1669.793 633.123 5.175 1.725 1.725 15.525 15.526-12.075 3.45 1.725c-1.242.96-2.484 1.922-3.76 2.912-4.813 3.952-9.143 8.154-13.49 12.614l-5.176-1.725c-2.087-4.2-2.277-7.622-2.691-12.292-.138-1.57-.293-3.14-.431-4.757-.104-1.205-.207-2.41-.328-3.652"/><path fill="#190D02" d="M755.498 198.399c9.573 3.096 16.37 8.427 22.21 16.604 2.763 8.289 2.357 16.142 1.942 24.798l8.625-1.725c-2.156 2.588-2.156 2.588-5.175 5.175h-6.9l.24-4.104c.568-15.667.568-15.667-7.141-28.672a138 138 0 0 0-11.025-8.343l-2.776-2.008z"/><path fill="#35250C" d="M1148.504 608.864c2.036.01 2.036.01 4.106.023 3.346.02 6.676.051 10.005.084v3.45l-41.402 1.726c7.107-7.104 17.837-5.386 27.29-5.283"/><path fill="#1B0E03" d="M363.902 653.824c2.184 6.67 1.918 13.338 1.832 20.27l-.023 3.645c-.02 2.955-.051 5.908-.084 8.861-8.09-.976-16.121-2.044-24.151-3.45v-1.725l6.469-.107 3.638-.062c3.75.173 6.993.864 10.594 1.894-.166-1.249-.33-2.5-.499-3.786-1.08-9.416-1.85-16.673 2.224-25.54"/><path fill="#1A0E03" d="m1388.603 472.689 10.35 6.9-3.45 1.725c.069 1.085.12 2.17.19 3.288.327 10.596-.742 18.178-5.365 27.764l-5.176 3.45 1.622-3.988c5.02-12.699 4.71-25.815 1.829-39.14"/><path fill="#FBCD33" d="M1376.527 420.936c0 6.942-3.036 9.849-6.9 15.526-1.225 2.84-2.416 5.705-3.45 8.625l-5.176-1.725c1.88-12.265 1.88-12.265 6.366-16.637 2.967-2.073 6.055-3.948 9.16-5.789"/><path fill="#F9ED6A" d="m574.363 338.131 3.45 1.726-2.48 3.018c-4.668 6.723-5.11 13.02-4.42 21.133 2.372 3.241 2.372 3.241 5.175 5.175-4.945-.988-6.662-1.485-10.35-5.175-1.246-6.549-1.479-12.987 1.934-18.848 2.379-2.823 2.379-2.823 6.691-7.029"/><path fill="#3D2B0E" d="M1257.495 498.565c1.07.333 2.14.668 3.226 1.011a332 332 0 0 0 29.551 7.615v1.725c-12.024.678-21.58-.637-32.777-5.175z"/><path fill="#3A290F" d="M453.607 612.421c11.746 1.741 20.766 8.28 28.57 17.036.82 1.209 1.638 2.42 2.481 3.666l-3.45 1.725-3.559-3.773c-6.964-6.964-14.998-12.949-24.042-16.928z"/><path fill="#30210B" d="M1041.859 332.956c10.367 4.225 17.51 13.74 24.15 22.426 1.416 4.098 1.416 4.098 1.726 6.9-4.364-4.208-8.487-8.599-12.507-13.153a748 748 0 0 1-2.708-3.086c-2.036-2.736-2.036-2.736-2.036-6.186-1.104-.499-2.208-.996-3.33-1.51-3.57-1.94-3.57-1.94-5.295-5.39"/><path fill="#FAC423" d="m746.873 324.33 3.45 1.726c-10.264 8.798-10.264 8.798-17.251 10.35-5.855-.757-11.53-2.006-17.251-3.45v-1.725l4.603-.633c2.002-.29 4.007-.578 6.07-.876l6.005-.85c5.696-.888 5.696-.888 10.58-3.046z"/><path fill="#3E2B0F" d="M346.65 653.824h1.726c.167 10.612.167 10.612 0 13.8-3.124 3.125-7.958 2.385-12.184 2.697l-5.774.436-4.468.318 1.725-3.45c3.443-.729 3.443-.729 7.654-1.294 4.202-.696 4.202-.696 7.872-2.157 2.917-5.146 2.917-5.146 3.45-10.35"/><path fill="#3C2B0F" d="m1093.611 510.64 5.4 3.991c4.14 2.993 7.85 5.196 12.507 7.439 4.52 2.372 4.52 2.372 6.245 7.547-7.59-.876-11.334-3.397-16.923-8.517-1.363-1.226-2.726-2.451-4.123-3.714-3.106-3.295-3.106-3.295-3.106-6.745"/><path fill="#38250C" d="m968.654 387.837 4.104-.075c3.552.397 3.552.397 7.002 3.847h-18.976v3.45h-10.35c5.506-6.03 10.199-7.157 18.22-7.222"/><path fill="#3A290E" d="M1692.22 814.257c1.293 2.804 1.293 2.804 1.724 6.9-4.623 9.265-9.936 12.905-18.976 17.252h-3.45v-3.45c9.92-5.176 9.92-5.176 13.8-5.176.501-1.28 1.001-2.561 1.519-3.881a143 143 0 0 1 5.382-11.645"/><path fill="#30220B" d="M614.04 276.028h1.726l1.725 17.251-18.976 1.725c5.032-3.355 7.978-4.232 13.8-5.175z"/><path fill="#39280D" d="m1110.862 619.322-24.15 12.075c2.086-6.237 3.587-6.808 9.177-9.919 1.345-.774 2.69-1.547 4.07-2.344 4.003-1.537 4.003-1.537 10.903.188"/><path fill="#FAC112" d="m757.546 263.737 6.578.215v1.726l-3.337.633-4.32.876-4.305.849-3.564 1.092-1.725 3.45h10.35v1.725l-13.8 1.725c.538-4.097.538-4.097 1.725-8.625 5.328-3.552 6.398-3.863 12.398-3.666"/><path fill="#EFC547" d="M827.952 686.6c.073 4.025.07 8.051 0 12.076l-1.725 1.725a401 401 0 0 0-1.725 12.076h-1.725v-24.151c3.45-1.726 3.45-1.726 5.175-1.726"/><path fill="#3A2A0E" d="m1062.56 652.099 3.45 1.725c-1.104 1.566-2.208 3.13-3.33 4.744-3.674 5.11-3.674 5.11-4.536 9.596-.242.96-.5 1.92-.76 2.91l-5.175 1.726c.794-8.672 5.158-14.058 10.35-20.701"/><path fill="#251405" d="M1526.61 686.6c5.003 4.132 6.038 7.44 6.9 13.801h-13.8v-3.45h10.35z"/><path fill="#2A1807" d="M1643.916 331.231c3.26.385 3.26.385 6.9 1.725 1.881 3.443 1.881 3.443 3.14 7.656.432 1.385.863 2.77 1.329 4.197.707 3.673.707 3.673-1.018 7.123h-3.45c-.31-1.808-.31-1.808-.621-3.652-.294-1.57-.587-3.14-.88-4.758-.293-1.56-.57-3.122-.845-4.73-.811-4.395-.811-4.395-4.555-7.56"/><path fill="#F6E760" d="M1559.387 645.198c5.951 2.46 8.798 5.345 12.507 10.566a1061 1061 0 0 0 2.725 3.787l2.019 2.898-1.725 3.45c-.69-.955-1.363-1.913-2.07-2.898-.915-1.249-1.83-2.5-2.778-3.786-.897-1.24-1.794-2.483-2.726-3.761-2.829-3.752-2.829-3.752-7.952-6.806z"/><path fill="#37270D" d="m1533.51 313.98 5.176 1.725c-10.748 6.958-10.748 6.958-17.027 6.685-3.674-1.51-3.674-1.51-5.4-4.96l5.728.216c6.503.338 6.503.338 11.523-3.666"/><path fill="#3D2D0E" d="M1416.204 802.182c5.503 4.168 9.92 8.073 13.8 13.8l-1.724 3.45a722 722 0 0 1-6.038-5.713c-1.673-1.592-1.673-1.592-3.399-3.215-2.639-3.147-2.639-3.147-2.639-8.322"/><path fill="#F8F0AC" d="m1264.396 408.86 3.45 1.725c-5.934 9.98-5.934 9.98-10.782 11.86-.983.071-1.984.144-3.019.216 3.002-5.275 5.848-9.72 10.35-13.8"/><path fill="#F4E35D" d="M638.192 683.15c5.724 1.703 8.22 2.91 11.86 7.763l1.94 4.313-1.725 3.45q-3.027-3.39-6.037-6.792c-1.122-1.26-2.243-2.522-3.397-3.82-2.641-3.189-2.641-3.189-2.641-4.914"/><path fill="#FCF4AB" d="M370.802 646.923c1.725 3.45 1.725 3.45.323 9.597-2.048 5.93-2.048 5.93-5.498 7.654 1.294-11.428 1.294-11.428 5.175-17.25"/><path fill="#F8EFA5" d="M852.103 282.928c4.098.325 4.098.325 8.626 1.726 2.263 4.421 2.263 4.421 3.45 8.625-5.068-2.263-5.068-2.263-10.35-5.175z"/><path fill="#433010" d="M893.506 829.783c6.138 1.053 11.529 2.722 17.25 5.176v1.725c-11.252-1.061-11.252-1.061-15.418-4.42-.604-.82-1.21-1.637-1.832-2.48"/><path fill="#F9F0A4" d="m860.729 295.004 3.45 3.45c-.216 4.313-.216 4.313-1.725 8.626-3.559 2.265-3.559 2.265-6.9 3.45l1.616-3.881c1.504-3.894 2.655-7.582 3.559-11.645"/></svg>